<?xml version="1.0" encoding="UTF-8"?>
<svg version="1.1" xmlns="http://www.w3.org/2000/svg" width="512" height="512">
<path d="M0 0 C2.75728416 2.11152874 5.13256198 4.52522494 7.54296875 7.01953125 C8.23385086 7.71511642 8.92473297 8.4107016 9.6365509 9.12736511 C11.83218937 11.34426907 14.00957539 13.57820614 16.1875 15.8125 C17.66230816 17.30382627 19.13820923 18.79407256 20.61523438 20.28320312 C36.7299706 36.59941206 36.7299706 36.59941206 37 42 C35.79439273 45.76742723 34.26437154 48.11017906 31.47984314 50.89209366 C30.74558137 51.63294527 30.0113196 52.37379689 29.25480747 53.13709855 C28.03994364 54.33987777 28.03994364 54.33987777 26.80053711 55.56695557 C25.9426934 56.42806812 25.08484968 57.28918067 24.2010107 58.17638755 C21.82042916 60.56299346 19.43329753 62.94268492 17.04315901 65.3196969 C14.46648339 67.8854754 11.89847129 70.4598994 9.32937622 73.03326416 C4.29654007 78.0717347 -0.74423383 83.10219137 -5.78768325 88.13003567 C-11.65732891 93.98215274 -17.51891809 99.84231149 -23.38013327 105.7028701 C-33.83492514 116.15597378 -44.29676442 126.60199534 -54.76269531 137.04394531 C-64.92569897 147.18367896 -75.08413479 157.32795842 -85.23730469 167.47753906 C-85.86291751 168.10292911 -86.48853032 168.72831916 -87.13310111 169.37266043 C-88.39335087 170.6324676 -89.65360034 171.89227505 -90.91384953 173.15208279 C-91.53547453 173.77348822 -92.15709953 174.39489365 -92.79756165 175.03512955 C-93.72759608 175.96484 -93.72759608 175.96484 -94.67641908 176.91333248 C-104.34363017 186.57684571 -114.01466996 196.23652668 -123.68623978 205.89567728 C-127.19538134 209.40037948 -130.70402134 212.90558292 -134.21231675 216.41113213 C-139.77519225 221.96958101 -145.33972447 227.52636002 -150.9076798 233.07972077 C-153.45291049 235.61833168 -155.99735308 238.15771907 -158.53966904 240.69924927 C-161.29057202 243.44922429 -164.04533071 246.1953152 -166.80053711 248.940979 C-168.01540094 250.15714256 -168.01540094 250.15714256 -169.25480747 251.39787507 C-169.98906924 252.1282957 -170.72333101 252.85871632 -171.47984314 253.6112709 C-172.11592971 254.24611098 -172.75201628 254.88095105 -173.4073782 255.5350287 C-175.49073607 257.451403 -176.8283466 257.96730412 -179.625 258.5 C-187.53231814 257.32854546 -194.23251236 247.91031539 -199.69993591 242.42704773 C-200.53911043 241.58943321 -201.37828494 240.75181868 -202.24288899 239.8888219 C-204.55061266 237.58437646 -206.8561077 235.27772911 -209.16063583 232.97008884 C-211.65430695 230.47414314 -214.15086871 227.98109153 -216.64704895 225.48765564 C-221.52660777 220.61253037 -226.40347535 215.73472157 -231.27936506 210.85592689 C-235.24042834 206.89260163 -239.20247096 202.93025787 -243.16520882 198.96860695 C-243.73000987 198.40395913 -244.29481092 197.83931131 -244.87672715 197.25755296 C-246.02417492 196.11042492 -247.17162492 194.96329913 -248.31907714 193.81617556 C-259.06211823 183.07598178 -269.80209923 172.33273218 -280.54102678 161.58842555 C-289.76023198 152.3647457 -298.98206608 143.14370103 -308.20581055 133.92456055 C-318.92199993 123.2137176 -329.63657199 112.50126106 -340.34855133 101.7862075 C-341.48953264 100.64490764 -342.63051603 99.50360988 -343.77150154 98.36231422 C-344.33287942 97.80078207 -344.8942573 97.23924991 -345.47264664 96.66070163 C-349.43378276 92.6987011 -353.39608007 88.73786412 -357.35882378 84.77747154 C-362.18157734 79.95751661 -367.00255725 75.13579617 -371.82124161 70.31177296 C-374.28086315 67.8495164 -376.74129027 65.38807902 -379.2038765 62.92878723 C-381.86787694 60.26749846 -384.52881137 57.60318255 -387.18894958 54.93803406 C-387.97433324 54.15488113 -388.75971689 53.37172819 -389.56890005 52.56484336 C-390.2765702 51.85456545 -390.98424036 51.14428755 -391.71335506 50.41248608 C-392.32834234 49.79733645 -392.94332962 49.18218682 -393.57695287 48.54839629 C-396.17904631 45.71709734 -396.52963587 43.02275433 -396.4609375 39.203125 C-395.53358831 34.77071022 -392.14147605 32.06307915 -389 29 C-388.20464844 28.18144531 -387.40929687 27.36289063 -386.58984375 26.51953125 C-382.29555262 22.13231883 -377.88829995 17.98059995 -373.21875 14 C-369.68140572 10.81140797 -366.36332628 7.40391392 -363.03564453 3.99853516 C-359.92265017 0.83272654 -358.30398649 -0.79136216 -353.875 -1.5 C-349.76240375 -0.96934242 -349.0994122 -0.5622967 -346.19995117 2.09662724 C-345.50074554 2.73492722 -344.80153992 3.3732272 -344.08114624 4.0308696 C-340.98354386 6.9617463 -337.93389294 9.93132499 -334.92578125 12.95396423 C-334.26149392 13.61739714 -333.59720659 14.28083004 -332.91278934 14.96436697 C-330.71031594 17.16520674 -328.51141145 19.36957646 -326.3125 21.57397461 C-324.72534819 23.16140877 -323.13797559 24.74862221 -321.55039978 26.33563232 C-317.25744647 30.62829955 -312.96757636 34.92403591 -308.67826462 39.22034144 C-304.1890791 43.7157919 -299.69704838 48.2083975 -295.20532227 52.7013092 C-287.67188891 60.23749429 -280.14020238 67.77542066 -272.60986328 75.31469727 C-264.85680978 83.07694298 -257.10269685 90.83812788 -249.34716797 98.59790039 C-248.86836347 99.07696761 -248.38955897 99.55603484 -247.89624524 100.04961925 C-245.49399209 102.45317752 -243.09171822 104.85671508 -240.68943405 107.26024234 C-220.78974242 127.17028485 -200.89371523 147.08398612 -181 167 C-178.17847984 165.71497121 -176.12881128 164.37700996 -173.9449091 162.18262482 C-173.36526813 161.60511585 -172.78562716 161.02760688 -172.18842131 160.43259764 C-171.5614768 159.79778109 -170.9345323 159.16296454 -170.28858948 158.50891113 C-169.61491347 157.83482728 -168.94123746 157.16074342 -168.24714702 156.46623278 C-165.98624527 154.2015943 -163.73257637 151.92989137 -161.47875977 149.65820312 C-159.86113876 148.03510796 -158.24305493 146.41247394 -156.62454224 144.79026794 C-153.13774178 141.29374806 -149.65402406 137.79419509 -146.17257881 134.29234314 C-140.66975413 128.75774968 -135.15881643 123.23128374 -129.64646912 117.70617676 C-121.92075919 109.96121739 -114.19748133 102.21384427 -106.47729492 94.46337891 C-105.98741704 93.97158309 -105.49753916 93.47978728 -104.9928165 92.97308856 C-99.52700184 87.48572574 -94.06200181 81.99755268 -88.59790039 76.50848389 C-86.6163018 74.51785352 -84.63469555 72.52723077 -82.65307617 70.53662109 C-81.91961163 69.79982407 -81.91961163 69.79982407 -81.17132962 69.04814225 C-73.01902536 60.85912143 -64.86082748 52.67600394 -56.69819874 44.49727392 C-51.21550695 39.00304107 -45.73984134 33.50192827 -40.26928532 27.9956131 C-36.86712719 24.57429316 -33.45875697 21.15921532 -30.04860306 17.74586678 C-28.46612827 16.15936539 -26.88624705 14.57027224 -25.30913734 12.97843742 C-23.1590738 10.80902275 -20.99999378 8.64900018 -18.83839417 6.49108887 C-18.21368038 5.85627232 -17.5889666 5.22145577 -16.9453221 4.56740236 C-11.42429265 -0.9086836 -7.69991442 -3.29071541 0 0 Z " fill="#000000" transform="translate(436,41)"/>
<path d="M0 0 C9.42213579 6.88943656 17.50690026 16.37248537 25.73095703 24.61743164 C27.29869958 26.1854567 28.86666324 27.75326072 30.43482971 29.32086182 C34.66568283 33.55142948 38.8934581 37.78506065 43.12066507 42.01927114 C47.54844055 46.4533222 51.97907148 50.88451819 56.40939331 55.31602478 C63.83671809 62.74609878 71.26229784 70.17791341 78.68652344 77.61108398 C86.32889689 85.26265558 93.97233418 92.91316192 101.6171875 100.56225586 C102.08949256 101.03482364 102.56179762 101.50739143 103.04841496 101.99427945 C105.41815868 104.36532833 107.78792314 106.73635647 110.15769792 109.10737431 C129.7749695 128.73508229 149.38866866 148.36635686 169 168 C171.82320365 166.71410465 173.8758545 165.37315794 176.06347084 163.1798315 C176.64496191 162.60170584 177.22645297 162.02358017 177.82556498 161.42793554 C178.45455584 160.79243687 179.08354671 160.15693821 179.7315979 159.50218201 C180.40739061 158.82739258 181.08318331 158.15260316 181.77945459 157.45736557 C184.04736497 155.19040937 186.30804335 152.9163754 188.56884766 150.64233398 C190.19135089 149.01763005 191.81430188 147.39337317 193.43766785 145.76953125 C196.93441044 142.2698529 200.42796991 138.76703806 203.91911697 135.26177788 C209.43456688 129.72409911 214.95706206 124.19348302 220.4805603 118.66383362 C228.21924054 110.91506112 235.95477402 103.16316163 243.6875 95.40844727 C244.17816481 94.91638914 244.66882962 94.42433102 245.17436306 93.91736204 C245.66565306 93.42467651 246.15694306 92.93199099 246.66312063 92.42437559 C253.63211687 85.43560205 260.60208899 78.44780371 267.57324219 71.46118164 C268.06391476 70.96941822 268.55458733 70.4776548 269.06012876 69.97098946 C277.23308205 61.78003116 285.40805837 53.59109418 293.58406675 45.40318543 C299.0788789 39.89994368 304.57086967 34.39390577 310.06064248 28.88563716 C313.46916201 25.46650668 316.87968476 22.04937966 320.29071999 18.63275909 C321.87752742 17.04246868 323.46346192 15.45130671 325.04847908 13.85923195 C327.20416997 11.69415073 329.36287253 9.53211841 331.52236938 7.37083435 C332.15582169 6.73310496 332.789274 6.09537557 333.44192183 5.43832105 C338.70911471 0.17805314 338.70911471 0.17805314 343.625 -0.5 C347.14053208 -0.41281231 348.76802417 0.25473669 351.34375 2.625 C352.03549316 3.26115234 352.72723633 3.89730469 353.43994141 4.55273438 C354.28476074 5.36033203 355.12958008 6.16792969 356 7 C356.52535339 7.50120361 357.05070679 8.00240723 357.59197998 8.51879883 C361.39152576 12.15485297 365.14802862 15.8321955 368.88378906 19.53369141 C370.21671253 20.84994516 371.55499332 22.16079466 372.8984375 23.46630859 C374.85866255 25.37171217 376.80186802 27.29310444 378.7421875 29.21875 C379.64056839 30.08312683 379.64056839 30.08312683 380.55709839 30.96496582 C384.23694946 34.6637263 386.34498978 37.63544355 387 43 C384.80420948 49.12176773 380.30330551 53.12132132 375.78985596 57.60455322 C374.94285275 58.45764753 374.09584955 59.31074184 373.22317958 60.18968749 C370.87732294 62.5492945 368.52493414 64.90201968 366.1694746 67.2520175 C363.62821957 69.79059932 361.09559343 72.33776559 358.5617981 74.88378906 C353.59930558 79.86732409 348.6285975 84.84258523 343.65468219 89.81471708 C339.61216985 93.85592143 335.57222381 97.89967389 331.53408051 101.94524384 C330.37057853 103.11084501 329.20707575 104.27644539 328.04357219 105.44204497 C327.17490264 106.31227981 327.17490264 106.31227981 326.28868422 107.20009515 C315.33897044 118.16870587 304.37930324 129.1273297 293.41672716 140.08308288 C283.38765576 150.10657681 273.37185552 160.14321419 263.36213818 170.18603233 C253.08272468 180.49917419 242.79406668 190.80301038 232.49546313 201.09699035 C226.71423595 206.87597229 220.93681643 212.65864384 215.16916656 218.4511795 C210.25985047 223.3814974 205.34193198 228.30303005 200.41265348 233.213393 C197.89811626 235.71876631 195.38777321 238.22799276 192.88814926 240.74825287 C190.178262 243.48026385 187.44926062 246.19264958 184.71807861 248.90338135 C183.53775712 250.10247961 183.53775712 250.10247961 182.33359075 251.32580209 C178.114744 255.47703731 175.02370235 258.44565607 169 259 C162.91054603 257.19006607 158.7621351 252.18597641 154.39544678 247.78985596 C153.54235247 246.94285275 152.68925816 246.09584955 151.81031251 245.22317958 C149.4507055 242.87732294 147.09798032 240.52493414 144.7479825 238.1694746 C142.20940068 235.62821957 139.66223441 233.09559343 137.11621094 230.5617981 C132.13267591 225.59930558 127.15741477 220.6285975 122.18528292 215.65468219 C118.14407857 211.61216985 114.10032611 207.57222381 110.05475616 203.53408051 C108.88915499 202.37057853 107.72355461 201.20707575 106.55795503 200.04357219 C105.97779847 199.46445916 105.39764191 198.88534613 104.79990485 198.28868422 C93.83129413 187.33897044 82.8726703 176.37930324 71.91691712 165.41672716 C61.89342319 155.38765576 51.85678581 145.37185552 41.81396767 135.36213818 C31.50082581 125.08272468 21.19698962 114.79406668 10.90300965 104.49546313 C5.12402771 98.71423595 -0.65864384 92.93681643 -6.4511795 87.16916656 C-11.3814974 82.25985047 -16.30303005 77.34193198 -21.213393 72.41265348 C-23.71876631 69.89811626 -26.22799276 67.38777321 -28.74825287 64.88814926 C-31.48026385 62.178262 -34.19264958 59.44926062 -36.90338135 56.71807861 C-37.70278019 55.93119762 -38.50217904 55.14431662 -39.32580209 54.33359075 C-43.51659876 50.07453821 -46.18250669 47.01012277 -47 41 C-45.35179243 36.14115761 -42.45167202 33.09901554 -38.8125 29.5625 C-37.91144531 28.67691406 -37.01039062 27.79132813 -36.08203125 26.87890625 C-33.83256883 24.73990184 -31.51181972 22.7015631 -29.16015625 20.67578125 C-24.76942288 16.86248795 -20.69695272 12.77334958 -16.625 8.625 C-15.22367253 7.19824009 -13.8201365 5.77364493 -12.4140625 4.3515625 C-11.8051416 3.73104004 -11.1962207 3.11051758 -10.56884766 2.47119141 C-7.45275903 -0.45092967 -4.07755389 -1.126181 0 0 Z " fill="#000000" transform="translate(86,214)"/>
</svg>
